<svg xmlns="http://www.w3.org/2000/svg" viewBox="0 0 400 480" fill="none">
  <rect width="400" height="480" fill="#f5f0e1"/>
  <rect x="20" y="20" width="360" height="440" rx="24" fill="#fff" stroke="#e2d6c7" stroke-width="2"/>
  <!-- Collar shape (curved) -->
  <path d="M80 200 Q80 280 200 320 Q320 280 320 200" stroke="#2f5d46" stroke-width="28" fill="none" stroke-linecap="round"/>
  <path d="M80 200 Q80 280 200 320 Q320 280 320 200" stroke="#3a7a5a" stroke-width="20" fill="none" stroke-linecap="round"/>
  <!-- Canvas texture lines -->
  <path d="M100 210 Q100 270 200 300 Q300 270 300 210" stroke="#2f5d46" stroke-width="1" fill="none" opacity="0.3"/>
  <path d="M90 205 Q90 275 200 310 Q310 275 310 205" stroke="#2f5d46" stroke-width="1" fill="none" opacity="0.2"/>
  <!-- Buckle -->
  <rect x="175" y="140" width="50" height="40" rx="4" fill="#C0C0C0"/>
  <rect x="180" y="145" width="40" height="30" rx="2" fill="#A0A0A0"/>
  <rect x="195" y="150" width="10" height="20" fill="#808080"/>
  <!-- D-ring -->
  <circle cx="200" cy="330" r="20" stroke="#C0C0C0" stroke-width="6" fill="none"/>
  <rect x="188" y="315" width="24" height="10" fill="#2f5d46"/>
  <!-- Stitching details -->
  <path d="M95 195 Q95 265 200 295 Q305 265 305 195" stroke="#1a3a26" stroke-width="1" stroke-dasharray="4 4" fill="none" opacity="0.5"/>
  <path d="M85 205 Q85 285 200 325 Q315 285 315 205" stroke="#1a3a26" stroke-width="1" stroke-dasharray="4 4" fill="none" opacity="0.5"/>
</svg>
