<svg xmlns="http://www.w3.org/2000/svg" viewBox="0 0 400 480" fill="none">
  <rect width="400" height="480" fill="#f5f0e1"/>
  <rect x="20" y="20" width="360" height="440" rx="24" fill="#fff" stroke="#e2d6c7" stroke-width="2"/>
  <!-- Food bag shape -->
  <path d="M120 140 L120 380 Q120 400 140 400 L260 400 Q280 400 280 380 L280 140 Q280 120 260 120 L140 120 Q120 120 120 140Z" fill="#50bfdd" opacity="0.15"/>
  <path d="M120 140 L120 380 Q120 400 140 400 L260 400 Q280 400 280 380 L280 140 Q280 120 260 120 L140 120 Q120 120 120 140Z" stroke="#50bfdd" stroke-width="3" fill="none"/>
  <!-- Fold at top -->
  <path d="M130 120 L130 100 Q130 80 150 80 L250 80 Q270 80 270 100 L270 120" stroke="#50bfdd" stroke-width="3" fill="#50bfdd" opacity="0.1"/>
  <!-- Bone icon -->
  <ellipse cx="165" cy="260" rx="25" ry="18" fill="#332f20" opacity="0.7"/>
  <ellipse cx="235" cy="260" rx="25" ry="18" fill="#332f20" opacity="0.7"/>
  <rect x="165" y="250" width="70" height="20" fill="#332f20" opacity="0.7"/>
  <!-- Label lines -->
  <rect x="150" y="310" width="100" height="8" rx="4" fill="#332f20" opacity="0.3"/>
  <rect x="160" y="330" width="80" height="6" rx="3" fill="#332f20" opacity="0.2"/>
  <rect x="170" y="350" width="60" height="6" rx="3" fill="#332f20" opacity="0.2"/>
  <!-- Organic leaf -->
  <path d="M290 90 Q310 70 330 90 Q310 110 290 90Z" fill="#2f5d46"/>
  <path d="M310 90 L310 110" stroke="#2f5d46" stroke-width="2"/>
</svg>
