<svg xmlns="http://www.w3.org/2000/svg" viewBox="0 0 45 45"><path d="M38.4082 15.9082H37.0898V9.22852C37.0898 5.92708 34.6139 3.25406 31.5344 2.73278C31.0181 1.14847 29.5278 0 27.7734 0H17.2266C15.4723 0 13.9819 1.14847 13.4657 2.73278C10.3869 3.25389 7.91016 5.92611 7.91016 9.22852V15.9082H6.5918C2.95708 15.9082 0 18.8653 0 22.5V38.4082C0 42.0429 2.95708 45 6.5918 45H38.4082C42.0429 45 45 42.0429 45 38.4082V22.5C45 18.8653 42.0429 15.9082 38.4082 15.9082ZM17.2266 2.63672H27.7734C28.5004 2.63672 29.0918 3.22813 29.0918 3.95508C29.0918 4.68202 28.5004 5.27344 27.7734 5.27344H17.2266C16.4996 5.27344 15.9082 4.68202 15.9082 3.95508C15.9082 3.22813 16.4996 2.63672 17.2266 2.63672ZM10.5469 9.22852C10.5469 7.43449 11.8436 5.87426 13.551 5.41248C14.1325 6.87393 15.5603 7.91016 17.2266 7.91016H27.7734C29.4397 7.91016 30.8675 6.87393 31.449 5.41248C33.1564 5.87426 34.4531 7.43449 34.4531 9.22852V15.9082C34.0131 15.9082 10.8284 15.9082 10.5469 15.9082V9.22852ZM7.91016 42.3633H6.5918C4.41097 42.3633 2.63672 40.589 2.63672 38.4082V22.5C2.63672 20.7813 3.73896 19.3159 5.27344 18.7717V19.8633C5.27344 21.582 6.37567 23.0474 7.91016 23.5916V42.3633ZM9.22852 21.1816C8.50157 21.1816 7.91016 20.5902 7.91016 19.8633V18.5449C8.8323 18.5449 9.62473 18.5449 10.5469 18.5449V19.8633C10.5469 20.5902 9.95546 21.1816 9.22852 21.1816ZM34.4531 42.3633H10.5469V23.5916C12.0814 23.0474 13.1836 21.582 13.1836 19.8633V18.5449H31.8164V19.8633C31.8164 21.582 32.9186 23.0474 34.4531 23.5916V42.3633ZM35.7715 21.1816C35.0445 21.1816 34.4531 20.5902 34.4531 19.8633V18.5449C35.3753 18.5449 36.1677 18.5449 37.0898 18.5449V19.8633C37.0898 20.5902 36.4984 21.1816 35.7715 21.1816ZM42.3633 38.4082C42.3633 40.589 40.589 42.3633 38.4082 42.3633H37.0898V23.5916C38.6243 23.0474 39.7266 21.582 39.7266 19.8633V18.7717C41.261 19.3159 42.3633 20.7813 42.3633 22.5V38.4082Z"></path><path d="M22.5 21.1816C17.4114 21.1816 13.2715 25.3216 13.2715 30.4102C13.2715 35.4988 17.4114 39.6387 22.5 39.6387C27.5886 39.6387 31.7285 35.4988 31.7285 30.4102C31.7285 25.3216 27.5886 21.1816 22.5 21.1816ZM22.5 37.002C18.8653 37.002 15.9082 34.0449 15.9082 30.4102C15.9082 26.7754 18.8653 23.8184 22.5 23.8184C26.1347 23.8184 29.0918 26.7754 29.0918 30.4102C29.0918 34.0449 26.1347 37.002 22.5 37.002Z"></path><path d="M25.1367 29.0918H23.8184V27.7734C23.8184 27.0454 23.2281 26.4551 22.5 26.4551C21.7719 26.4551 21.1816 27.0454 21.1816 27.7734V29.0918H19.8633C19.1352 29.0918 18.5449 29.6821 18.5449 30.4102C18.5449 31.1382 19.1352 31.7285 19.8633 31.7285H21.1816V33.0469C21.1816 33.775 21.7719 34.3652 22.5 34.3652C23.2281 34.3652 23.8184 33.775 23.8184 33.0469V31.7285H25.1367C25.8648 31.7285 26.4551 31.1382 26.4551 30.4102C26.4551 29.6821 25.8648 29.0918 25.1367 29.0918Z"></path><circle cx="22" cy="22" r="8" fill="none" stroke="#888" stroke-linecap="round" stroke-linejoin="round" stroke-width="1" opacity="0.5"/><path d="M25,25a3,3,0,1,1,0-4" fill="none" stroke="#888" stroke-linecap="round" stroke-linejoin="round" stroke-width="1" opacity="0.5"/></svg>